<svg width="29" height="29" viewBox="0 0 29 29" fill="none" xmlns="http://www.w3.org/2000/svg">
<path d="M22.62 4.83328H6.48873C6.28081 4.82354 6.073 4.85489 5.87722 4.92557C5.68143 4.99625 5.50151 5.10484 5.34774 5.24513C5.19398 5.38542 5.06939 5.55468 4.98112 5.74318C4.89285 5.93169 4.84262 6.13575 4.83331 6.34369V22.5112C4.84549 22.9463 5.02382 23.3604 5.33167 23.6682C5.63951 23.9761 6.05354 24.1544 6.48873 24.1666H22.62C23.043 24.1478 23.4419 23.9639 23.731 23.6544C24.0202 23.345 24.1766 22.9346 24.1666 22.5112V6.34369C24.1701 6.1413 24.1322 5.94034 24.0552 5.75312C23.9783 5.56591 23.8638 5.3964 23.719 5.25496C23.5742 5.11354 23.402 5.00319 23.213 4.93068C23.024 4.85817 22.8223 4.82502 22.62 4.83328ZM10.875 20.9525H8.05956V12.3371H10.875V20.9525ZM9.53373 11.032C9.33727 11.0389 9.1415 11.005 8.95876 10.9326C8.776 10.8602 8.61019 10.7507 8.47176 10.6112C8.33332 10.4716 8.22524 10.3049 8.15431 10.1215C8.08337 9.93821 8.05112 9.74218 8.05956 9.54578C8.05087 9.34725 8.08378 9.14911 8.15617 8.96405C8.22856 8.77898 8.33883 8.61109 8.47991 8.47116C8.62099 8.33121 8.78976 8.2223 8.97539 8.15142C9.16104 8.08053 9.35945 8.04923 9.5579 8.05953C9.75436 8.05269 9.95012 8.08653 10.1329 8.15896C10.3156 8.23139 10.4814 8.34083 10.6199 8.4804C10.7583 8.61998 10.8664 8.78667 10.9373 8.97001C11.0083 9.15335 11.0405 9.34937 11.0321 9.54578C11.0408 9.74431 11.0078 9.94245 10.9355 10.1275C10.8631 10.3126 10.7528 10.4805 10.6117 10.6204C10.4706 10.7603 10.3019 10.8693 10.1162 10.9401C9.93058 11.011 9.73217 11.0423 9.53373 11.032ZM20.9525 20.9525H18.125V16.24C18.125 15.1162 17.7262 14.3429 16.7233 14.3429C16.4118 14.3456 16.1086 14.4445 15.8556 14.6262C15.6025 14.808 15.4118 15.0635 15.3096 15.3579C15.231 15.5785 15.1982 15.8128 15.2129 16.0466V20.9525H12.4337V12.3371H15.2129V13.5454C15.46 13.0914 15.8277 12.7147 16.2755 12.4566C16.7233 12.1986 17.2337 12.0694 17.7504 12.0833C19.575 12.0833 20.9525 13.2916 20.9525 15.8654V20.9525Z" fill="white"/>
</svg>
