<svg width="19" height="19" viewBox="0 0 19 19" fill="none" xmlns="http://www.w3.org/2000/svg">
<path fill-rule="evenodd" clip-rule="evenodd" d="M1.79868 5.03888C1.58334 5.46242 1.58334 6.01659 1.58334 7.12492V11.8749C1.58334 12.9833 1.58334 13.5374 1.79868 13.961C1.98859 14.3333 2.29149 14.6359 2.66397 14.8255C3.08751 15.0416 3.64168 15.0416 4.75001 15.0416H14.25C15.3583 15.0416 15.9125 15.0416 16.3361 14.8255C16.7082 14.6357 17.0108 14.3331 17.2006 13.961C17.4167 13.5374 17.4167 12.9833 17.4167 11.8749V7.12492C17.4167 6.01659 17.4167 5.46242 17.2006 5.03888C17.011 4.6664 16.7084 4.3635 16.3361 4.17359C15.9125 3.95825 15.3583 3.95825 14.25 3.95825H4.75001C3.64168 3.95825 3.08751 3.95825 2.66397 4.17359C2.29137 4.36337 1.98846 4.66628 1.79868 5.03888ZM3.67888 5.54159H15.3211C15.4061 5.54148 15.4889 5.56874 15.5572 5.61932C15.6255 5.66991 15.6757 5.74113 15.7004 5.82246C15.7251 5.90379 15.7229 5.99091 15.6943 6.07092C15.6656 6.15094 15.6119 6.2196 15.5412 6.26675L9.94018 10.0129C9.80992 10.1001 9.65673 10.1466 9.50001 10.1466C9.34329 10.1466 9.1901 10.1001 9.05984 10.0129L3.4588 6.26675C3.38809 6.2196 3.33443 6.15094 3.30576 6.07092C3.27709 5.99091 3.27494 5.90379 3.29963 5.82246C3.32431 5.74113 3.37452 5.66991 3.44282 5.61932C3.51112 5.56874 3.59389 5.54148 3.67888 5.54159Z" fill="white"/>
</svg>
