<svg width="496" height="304" viewBox="0 0 496 304" fill="none" xmlns="http://www.w3.org/2000/svg">
<path d="M472 176C485.255 176 496 165.254 496 152C496 138.746 485.255 128 472 128V176ZM24 128C10.7456 128 0 138.746 0 152C0 165.254 10.7456 176 24 176V128ZM472 304C485.255 304 496 293.255 496 280C496 266.745 485.255 256 472 256V304ZM173.344 256C160.09 256 149.344 266.745 149.344 280C149.344 293.255 160.09 304 173.344 304V256ZM472 48C485.255 48 496 37.2544 496 24C496 10.7456 485.255 0 472 0V48ZM173.344 0C160.09 0 149.344 10.7456 149.344 24C149.344 37.2544 160.09 48 173.344 48V0ZM472 128L24 128V176L472 176V128ZM472 256L173.344 256V304L472 304V256ZM472 0L173.344 0V48L472 48V0Z" fill="white"/>
</svg>
