<svg width="22" height="22" viewBox="0 0 22 22" fill="none" xmlns="http://www.w3.org/2000/svg">
<path fill-rule="evenodd" clip-rule="evenodd" d="M6.919 19.7997C15.2207 19.7997 19.7615 13.0276 19.7615 7.15563C19.7615 6.96286 19.7615 6.77153 19.7483 6.58093C20.6316 5.95278 21.3939 5.17287 22 4.28049C21.1772 4.64004 20.3027 4.87584 19.4084 4.9798C20.35 4.42423 21.0551 3.55138 21.3928 2.52145C20.5062 3.03913 19.5371 3.40448 18.5262 3.60051C16.8168 1.81139 13.9579 1.72471 12.1396 3.40768C10.9681 4.49285 10.4698 6.1108 10.8339 7.65407C7.205 7.4743 3.8236 5.78702 1.5312 3.0113C0.3333 5.04191 0.946 7.63867 2.9293 8.9426C2.211 8.92202 1.5081 8.73161 0.88 8.38723V8.44362C0.8811 10.5587 2.3958 12.3799 4.5012 12.799C3.8368 12.9777 3.1394 13.0037 2.464 12.8748C3.0547 14.6856 4.7498 15.9258 6.6803 15.9615C5.082 17.1983 3.1075 17.8699 1.0747 17.8677C0.7161 17.8667 0.3575 17.8461 0 17.8038C2.0647 19.1078 4.466 19.7997 6.919 19.7965" fill="white"/>
</svg>
