<svg width="19" height="19" viewBox="0 0 19 19" fill="none" xmlns="http://www.w3.org/2000/svg">
<path fill-rule="evenodd" clip-rule="evenodd" d="M1.79865 5.039C1.58331 5.46254 1.58331 6.01671 1.58331 7.12504V11.875C1.58331 12.9834 1.58331 13.5375 1.79865 13.9611C1.98856 14.3334 2.29146 14.636 2.66394 14.8256C3.08748 15.0417 3.64165 15.0417 4.74998 15.0417H14.25C15.3583 15.0417 15.9125 15.0417 16.336 14.8256C16.7082 14.6359 17.0108 14.3333 17.2005 13.9611C17.4166 13.5375 17.4166 12.9834 17.4166 11.875V7.12504C17.4166 6.01671 17.4166 5.46254 17.2005 5.039C17.0109 4.66652 16.7083 4.36362 16.336 4.17371C15.9125 3.95837 15.3583 3.95837 14.25 3.95837H4.74998C3.64165 3.95837 3.08748 3.95837 2.66394 4.17371C2.29134 4.36349 1.98843 4.6664 1.79865 5.039ZM3.67885 5.54171H15.3211C15.4061 5.5416 15.4889 5.56886 15.5572 5.61944C15.6255 5.67003 15.6757 5.74125 15.7004 5.82259C15.725 5.90392 15.7229 5.99103 15.6942 6.07105C15.6656 6.15106 15.6119 6.21972 15.5412 6.26687L9.94015 10.013C9.80989 10.1002 9.6567 10.1467 9.49998 10.1467C9.34326 10.1467 9.19007 10.1002 9.05981 10.013L3.45877 6.26687C3.38806 6.21972 3.3344 6.15106 3.30573 6.07105C3.27706 5.99103 3.27491 5.90392 3.2996 5.82259C3.32428 5.74125 3.37449 5.67003 3.44279 5.61944C3.51109 5.56886 3.59386 5.5416 3.67885 5.54171Z" fill="#13416B"/>
</svg>
