<svg width="15" height="15" viewBox="0 0 15 15" fill="none" xmlns="http://www.w3.org/2000/svg">
<g clip-path="url(#clip0_25_59)">
<path d="M5.89119 7.55963C6.27959 8.01526 6.62928 8.34864 6.62599 8.34565C6.62275 8.34296 6.92928 8.71617 7.3554 9.13686C7.69801 9.47489 8.07884 9.80852 8.50083 10.1254C8.97948 10.4851 9.72789 10.5317 10.1342 10.2836C10.5408 10.0359 11.3225 9.53339 11.9074 9.66156C12.3988 9.76915 13.0512 10.1297 13.8361 11.0561C15.6869 13.2413 14.0288 13.9235 12.8799 14.8047C11.7298 15.6854 7.93592 13.5039 4.46136 9.94995C0.986504 6.39621 -0.32213 2.71972 0.63986 1.63744C1.6021 0.555146 2.40412 -1.04865 4.44865 0.95576C5.31546 1.80577 5.62742 2.48286 5.69898 2.98075C5.78434 3.57353 5.22656 4.31675 4.94978 4.7041C4.67305 5.09171 4.66518 5.84141 4.9891 6.34503C5.2743 6.7893 5.57893 7.19345 5.89119 7.55963Z" fill="#13416B"/>
</g>
<defs>
<clipPath id="clip0_25_59">
<rect width="15" height="15" fill="white" transform="matrix(-1 0 0 1 15 0)"/>
</clipPath>
</defs>
</svg>
